<?xml version="1.0" encoding="UTF-8" standalone="no"?>
<svg xmlns:dc="http://purl.org/dc/elements/1.1/" xmlns:cc="http://creativecommons.org/ns#" xmlns:rdf="http://www.w3.org/1999/02/22-rdf-syntax-ns#" xmlns:svg="http://www.w3.org/2000/svg" xmlns="http://www.w3.org/2000/svg" id="svg657156" viewBox="0 0 1024 480" height="480px" width="1024px" version="1.1"><link xmlns="" type="text/css" rel="stylesheet" id="dark-mode-custom-link"/><link xmlns="" type="text/css" rel="stylesheet" id="dark-mode-general-link"/><style xmlns="" lang="en" type="text/css" id="dark-mode-custom-style"/><style xmlns="" lang="en" type="text/css" id="dark-mode-native-style"/><style xmlns="" lang="en" type="text/css" id="dark-mode-native-sheet"/>
  <metadata id="metadata657162">
    <rdf:RDF>
      <cc:Work rdf:about="">
        <dc:format>image/svg+xml</dc:format>
        <dc:type rdf:resource="http://purl.org/dc/dcmitype/StillImage"/>
      </cc:Work>
    </rdf:RDF>
  </metadata>
  <defs id="defs657160"/>
  <style id="style657153">
    #title &gt; path {
        fill: #9aafd4;
    }
    .c1{
    fill: #9aafd4;
    }
    .c2{
    fill: #a4bdd8;
    }
    .c3{
    fill: #bdd2e5;
    }
    </style>
  <g id="title" style="font-style:normal;font-weight:normal;font-size:126.5px;line-height:1;font-family:'Brandmark Sans 14 Color';font-variant-ligatures:none;text-align:left;dominant-baseline:middle;text-anchor:middle" aria-label="SEKURATA">
    
    
    
    
    
    
    
    
  <g id="path657164"> <path class="c1" d="M117.75557,106.42703c0,11.54834-9.08398,16.91284-18.80078,16.91284s-17.0625-5.61572-17.0625-5.61572 l5.40869-10.43884c3.28955,3.44055,8.65576,5.07141,11.65381,5.07141c3,0,5.53711-2.31921,5.53711-4.74011 c0-8.7876-20.60352-3.23669-20.60352-20.48071c0-11.05298,7.91602-16.38501,16.80469-16.38501 c8.56836,0,15.06592,4.03015,15.06592,4.03015l-5.02148,10.10901c0,0-4.20068-3.36987-8.11279-3.36987 c-2.91797,0-5.53662,1.08289-5.53662,4.29443C97.08809,93.27872,117.75508,88.47452,117.75557,106.42703z" transform="translate(213.35722 179.72275) scale(1.7569444444444) translate(-81.89229 -70.75089)"/> </g> <g id="path657166"> <path class="c1" d="M98.83369,110.86331h15.3374v11.09119H86.3564V72.04483h12.47729v0.09363h15.3374v11.09106h-15.3374 V110.86331z" transform="translate(286.71141 181.99975) scale(1.7569444444444) translate(-86.3564 -72.04483)"/> <path class="c3" d="M101.65059,97.04178c0-3.72205,2.92358-6.73914,6.53027-6.73914c3.60596,0,6.52954,3.01709,6.52954,6.73914 s-2.92358,6.73901-6.52954,6.73901C104.57417,103.78079,101.65059,100.76382,101.65059,97.04178z" transform="translate(286.71141 181.99975) scale(1.7569444444444) translate(-86.3564 -72.04483)"/> </g> <g id="path657168"> <path class="c1" d="M124.76241,121.95596h-16.63623l-12.36621-15.91479l-3.98193-5.12036v21.03369H79.30049V72.04483h12.47754 v20.7478l4.50171-6.21631l10.53516-14.5293h15.9436L103.8,95.91348L124.76241,121.95596z" transform="translate(348.47898 181.99975) scale(1.7569444444444) translate(-79.30049 -72.04483)"/> </g> <g id="path657170"> <path class="c1" d="M121.16182,72.04483v29.83716c0,7.55994-1.83887,21.45935-21.18262,21.45935 s-21.18262-13.89941-21.18262-21.45935V72.04483h12.47705v27.73962c0,11.21643,4.35352,12.19434,8.70557,12.19434 c4.35303,0,8.70557-0.97864,8.70557-12.19434V72.04483H121.16182z" transform="translate(434.06216 181.99975) scale(1.7569444444444) translate(-78.79658 -72.04483)"/> </g> <g id="path657172"> <path class="c1" d="M121.81953,121.9545h-15.25l-11.05078-17.96851h-1.29248v17.96851H81.74873V72.04483h19.80762 c5.28662,0,15.73242,2.17822,15.73242,15.97095c0,9.30176-4.75146,13.31763-9.46729,14.94849L121.81953,121.9545z M104.69942,88.01578c0-4.56226-2.99414-5.90808-6.00537-5.90808h-4.46777v11.81616h4.46777 C101.70528,93.92386,104.69942,92.57816,104.69942,88.01578z" transform="translate(521.4282 181.99975) scale(1.7569444444444) translate(-81.74873 -72.04483)"/> </g> <g id="path657174"> <path class="c1" d="M125.35542,121.9545h-13.86414L99.98836,87.44266L88.48384,121.9545H74.62056l18.02246-49.90967h14.68921 L125.35542,121.9545z" transform="translate(592.67142 181.99975) scale(1.7569444444444) translate(-74.62056 -72.04483)"/> <path class="c3" d="M93.42134,113.17764c0-3.72205,2.92346-6.73901,6.52954-6.73901s6.52954,3.01697,6.52954,6.73901 s-2.92346,6.73901-6.52954,6.73901S93.42134,116.89969,93.42134,113.17764z" transform="translate(592.67142 181.99975) scale(1.7569444444444) translate(-74.62056 -72.04483)"/> </g> <g id="path657176"> <path class="c1" d="M116.64717,72.13846v11.09106h-10.43652v38.72498H93.7336V83.22952H83.2961V72.13846h10.4375v-0.09363 h12.47705v0.09363H116.64717z" transform="translate(673.60177 181.99975) scale(1.7569444444444) translate(-83.2961 -72.04483)"/> </g> <g id="path657178"> <path class="c1" d="M125.35542,121.9545h-13.86414L99.98836,87.44266L88.48384,121.9545H74.62056l18.02246-49.90967h14.68921 L125.35542,121.9545z" transform="translate(724.11283 181.99975) scale(1.7569444444444) translate(-74.62056 -72.04483)"/> <path class="c3" d="M93.42134,113.17764c0-3.72205,2.92346-6.73901,6.52954-6.73901s6.52954,3.01697,6.52954,6.73901 s-2.92346,6.73901-6.52954,6.73901S93.42134,116.89969,93.42134,113.17764z" transform="translate(724.11283 181.99975) scale(1.7569444444444) translate(-74.62056 -72.04483)"/> </g> </g>
</svg>